<svg id="Layer_1" data-name="Layer 1" xmlns="http://www.w3.org/2000/svg" viewBox="0 0 174.19 186"><defs><style>.cls-1{fill:#f15852;}</style></defs><title>Beamery_Logo_RGB_Orange BexaBeamery_Logo_RGB_</title><path class="cls-1" d="M53.47,148.09l19.07,11V86.56a9.53,9.53,0,0,0-4.77-8.25h0a9.53,9.53,0,0,0-14.3,8.25Z"/><path class="cls-1" d="M37.64,60.91h0a9.53,9.53,0,0,0-14.29,8.26v50.45a19.15,19.15,0,0,0,9.59,16.61l9.47,5.47V69.17A9.55,9.55,0,0,0,37.64,60.91Z"/><path class="cls-1" d="M150.84,95.91v-22L88,110.16a9.55,9.55,0,0,0-4.76,8.26h0a9.53,9.53,0,0,0,14.29,8.25Z"/><path class="cls-1" d="M83.26,153.2h0a9.53,9.53,0,0,0,14.29,8.26l43.7-25.23a19.2,19.2,0,0,0,9.59-16.61V108.68L88,145A9.54,9.54,0,0,0,83.26,153.2Z"/><path class="cls-1" d="M57,37.68l-19.06,11L100.72,85a9.54,9.54,0,0,0,9.53,0h0a9.53,9.53,0,0,0,0-16.51Z"/><path class="cls-1" d="M140.38,67.55h0a9.53,9.53,0,0,0,0-16.5L96.68,25.82a19.14,19.14,0,0,0-19.17,0L68,31.29l62.82,36.26A9.49,9.49,0,0,0,140.38,67.55Z"/></svg>